<mxfile modified="2024-04-22T13:13:46.413Z" host="app.diagrams.net" agent="Mozilla/5.0 (X11; Linux x86_64; rv:109.0) Gecko/20100101 Firefox/115.0" etag="T6bfglq9iD0P8Wfh7vSe" version="24.2.7" type="device">
  <diagram id="eIo0H9kK7ql945uVP1NC" name="Page-1">
    <mxGraphModel dx="1948" dy="969" grid="1" gridSize="10" guides="1" tooltips="1" connect="1" arrows="1" fold="1" page="1" pageScale="1" pageWidth="827" pageHeight="1169" math="0" shadow="0">
      <root>
        <mxCell id="0" />
        <mxCell id="1" parent="0" />
        <mxCell id="T21aQVliIUyU_0U-5JRh-149" style="edgeStyle=orthogonalEdgeStyle;rounded=0;orthogonalLoop=1;jettySize=auto;html=1;exitX=-0.006;exitY=0.592;exitDx=0;exitDy=0;entryX=1;entryY=0.5;entryDx=0;entryDy=0;startArrow=classicThin;startFill=1;endArrow=classicThin;endFill=1;strokeColor=#0076BE;strokeWidth=2;fontSize=12;exitPerimeter=0;" parent="1" target="95eRo9iGLmmY8nyHqxOv-36" edge="1">
          <mxGeometry relative="1" as="geometry">
            <mxPoint x="1030.9899999999998" y="352.02" as="sourcePoint" />
            <mxPoint x="1294.38" y="613" as="targetPoint" />
            <Array as="points">
              <mxPoint x="910" y="352" />
              <mxPoint x="910" y="381" />
            </Array>
          </mxGeometry>
        </mxCell>
        <mxCell id="T21aQVliIUyU_0U-5JRh-62" value="" style="edgeStyle=orthogonalEdgeStyle;fontSize=12;html=1;endArrow=classicThin;endFill=1;rounded=0;strokeColor=#0076BE;strokeWidth=2;startArrow=classicThin;startFill=1;exitX=0;exitY=0.5;exitDx=0;exitDy=0;" parent="1" source="T21aQVliIUyU_0U-5JRh-24" target="T21aQVliIUyU_0U-5JRh-5" edge="1">
          <mxGeometry width="60" height="60" relative="1" as="geometry">
            <mxPoint x="961.5" y="613" as="sourcePoint" />
            <mxPoint x="961.5" y="443" as="targetPoint" />
          </mxGeometry>
        </mxCell>
        <mxCell id="T21aQVliIUyU_0U-5JRh-36" value="LLAMA-CPP" style="swimlane;fontStyle=1;horizontal=1;collapsible=0;startSize=30;swimlaneLine=0;swimlaneFillColor=none;fillColor=none;rounded=0;whiteSpace=wrap;html=1;absoluteArcSize=1;arcSize=12;strokeColor=#417CB9;fontColor=#417CB9;verticalAlign=top;align=center;spacingLeft=5;dashed=0;strokeWidth=4;fontSize=16;" parent="1" vertex="1">
          <mxGeometry x="210" y="160" width="280" height="450" as="geometry" />
        </mxCell>
        <mxCell id="T21aQVliIUyU_0U-5JRh-55" value="" style="edgeStyle=orthogonalEdgeStyle;fontSize=12;html=1;endArrow=classicThin;endFill=1;rounded=0;strokeColor=#0076BE;strokeWidth=2;startArrow=none;startFill=0;entryX=1;entryY=0;entryDx=0;entryDy=38.025000000000006;entryPerimeter=0;exitX=0;exitY=0.5;exitDx=0;exitDy=0;" parent="T21aQVliIUyU_0U-5JRh-36" source="95eRo9iGLmmY8nyHqxOv-27" target="95eRo9iGLmmY8nyHqxOv-29" edge="1">
          <mxGeometry width="60" height="60" relative="1" as="geometry">
            <mxPoint x="480.5" y="380.70000000000005" as="sourcePoint" />
            <mxPoint x="480.5" y="270.7" as="targetPoint" />
            <Array as="points">
              <mxPoint x="-20" y="77.69999999999999" />
              <mxPoint x="-20" y="77.69999999999999" />
            </Array>
          </mxGeometry>
        </mxCell>
        <mxCell id="T21aQVliIUyU_0U-5JRh-5" value="REST API" style="aspect=fixed;perimeter=ellipsePerimeter;html=1;align=center;shadow=0;dashed=0;fontColor=#4277BB;labelBackgroundColor=#ffffff;fontSize=12;spacingTop=0;image;image=img/lib/ibm/applications/iot_application.svg;imageBorder=none;strokeWidth=0;" parent="T21aQVliIUyU_0U-5JRh-36" vertex="1">
          <mxGeometry x="250" y="191.2" width="60" height="60" as="geometry" />
        </mxCell>
        <mxCell id="T21aQVliIUyU_0U-5JRh-28" value="LLM" style="aspect=fixed;perimeter=ellipsePerimeter;html=1;align=center;shadow=0;dashed=0;fontColor=#4277BB;labelBackgroundColor=#ffffff;fontSize=13;spacingTop=0;image;image=img/lib/ibm/blockchain/ledger.svg;" parent="T21aQVliIUyU_0U-5JRh-36" vertex="1">
          <mxGeometry x="51.5" y="320" width="73" height="73" as="geometry" />
        </mxCell>
        <mxCell id="95eRo9iGLmmY8nyHqxOv-26" value="LLM" style="aspect=fixed;perimeter=ellipsePerimeter;html=1;align=center;shadow=0;dashed=0;fontColor=#4277BB;labelBackgroundColor=#ffffff;fontSize=13;spacingTop=0;image;image=img/lib/ibm/blockchain/ledger.svg;" vertex="1" parent="T21aQVliIUyU_0U-5JRh-36">
          <mxGeometry x="51.5" y="184.7" width="73" height="73" as="geometry" />
        </mxCell>
        <mxCell id="95eRo9iGLmmY8nyHqxOv-27" value="LLM" style="aspect=fixed;perimeter=ellipsePerimeter;html=1;align=center;shadow=0;dashed=0;fontColor=#4277BB;labelBackgroundColor=#ffffff;fontSize=13;spacingTop=0;image;image=img/lib/ibm/blockchain/ledger.svg;" vertex="1" parent="T21aQVliIUyU_0U-5JRh-36">
          <mxGeometry x="51.5" y="41.2" width="73" height="73" as="geometry" />
        </mxCell>
        <mxCell id="T21aQVliIUyU_0U-5JRh-47" value="" style="edgeStyle=orthogonalEdgeStyle;fontSize=12;html=1;endArrow=classicThin;endFill=1;rounded=0;strokeColor=#0076BE;strokeWidth=2;startArrow=classicThin;startFill=1;entryX=0;entryY=0.5;entryDx=0;entryDy=0;exitX=1;exitY=0.5;exitDx=0;exitDy=0;" parent="T21aQVliIUyU_0U-5JRh-36" source="95eRo9iGLmmY8nyHqxOv-27" target="T21aQVliIUyU_0U-5JRh-5" edge="1">
          <mxGeometry width="60" height="60" relative="1" as="geometry">
            <mxPoint x="230" y="137.7" as="sourcePoint" />
            <mxPoint x="100" y="37.7" as="targetPoint" />
          </mxGeometry>
        </mxCell>
        <mxCell id="95eRo9iGLmmY8nyHqxOv-28" value="" style="edgeStyle=orthogonalEdgeStyle;fontSize=12;html=1;endArrow=classicThin;endFill=1;rounded=0;strokeColor=#0076BE;strokeWidth=2;startArrow=classicThin;startFill=1;entryX=0;entryY=0.5;entryDx=0;entryDy=0;exitX=1;exitY=0.5;exitDx=0;exitDy=0;" edge="1" parent="T21aQVliIUyU_0U-5JRh-36" source="95eRo9iGLmmY8nyHqxOv-26" target="T21aQVliIUyU_0U-5JRh-5">
          <mxGeometry width="60" height="60" relative="1" as="geometry">
            <mxPoint x="135" y="87.7" as="sourcePoint" />
            <mxPoint x="240" y="254.7" as="targetPoint" />
          </mxGeometry>
        </mxCell>
        <mxCell id="T21aQVliIUyU_0U-5JRh-49" value="" style="edgeStyle=orthogonalEdgeStyle;fontSize=12;html=1;endArrow=classicThin;endFill=1;rounded=0;strokeColor=#0076BE;strokeWidth=2;startArrow=classicThin;startFill=1;entryX=0;entryY=0.5;entryDx=0;entryDy=0;" parent="T21aQVliIUyU_0U-5JRh-36" source="T21aQVliIUyU_0U-5JRh-28" target="T21aQVliIUyU_0U-5JRh-5" edge="1">
          <mxGeometry width="60" height="60" relative="1" as="geometry">
            <mxPoint x="176.5" y="375.7" as="sourcePoint" />
            <mxPoint x="116.5" y="270.7" as="targetPoint" />
          </mxGeometry>
        </mxCell>
        <mxCell id="95eRo9iGLmmY8nyHqxOv-29" value="Mistral-7B" style="shape=cylinder3;whiteSpace=wrap;html=1;boundedLbl=1;backgroundOutline=1;size=15;fontFamily=Helvetica;fontSize=11;fontColor=default;labelBackgroundColor=default;fillColor=#99c1f1;" vertex="1" parent="T21aQVliIUyU_0U-5JRh-36">
          <mxGeometry x="-160" y="40" width="100" height="60.7" as="geometry" />
        </mxCell>
        <mxCell id="95eRo9iGLmmY8nyHqxOv-31" value="Llama" style="shape=cylinder3;whiteSpace=wrap;html=1;boundedLbl=1;backgroundOutline=1;size=15;fontFamily=Helvetica;fontSize=11;fontColor=default;labelBackgroundColor=default;fillColor=#99c1f1;" vertex="1" parent="T21aQVliIUyU_0U-5JRh-36">
          <mxGeometry x="-160" y="185.7" width="100" height="60.7" as="geometry" />
        </mxCell>
        <mxCell id="95eRo9iGLmmY8nyHqxOv-33" value="" style="edgeStyle=orthogonalEdgeStyle;fontSize=12;html=1;endArrow=classicThin;endFill=1;rounded=0;strokeColor=#0076BE;strokeWidth=2;startArrow=none;startFill=0;entryX=1;entryY=0;entryDx=0;entryDy=38.025000000000006;entryPerimeter=0;exitX=0;exitY=0.5;exitDx=0;exitDy=0;" edge="1" parent="T21aQVliIUyU_0U-5JRh-36" source="95eRo9iGLmmY8nyHqxOv-26" target="95eRo9iGLmmY8nyHqxOv-31">
          <mxGeometry width="60" height="60" relative="1" as="geometry">
            <mxPoint x="62" y="87.69999999999999" as="sourcePoint" />
            <mxPoint x="-50" y="87.69999999999999" as="targetPoint" />
            <Array as="points">
              <mxPoint x="52" y="223.7" />
            </Array>
          </mxGeometry>
        </mxCell>
        <mxCell id="T21aQVliIUyU_0U-5JRh-68" value="3" style="ellipse;whiteSpace=wrap;html=1;aspect=fixed;rounded=0;strokeColor=none;strokeWidth=7;fillColor=#939598;fontSize=14;align=center;fontColor=#FFFFFF;" parent="1" vertex="1">
          <mxGeometry x="560" y="360" width="21" height="21" as="geometry" />
        </mxCell>
        <mxCell id="95eRo9iGLmmY8nyHqxOv-2" value="" style="swimlane;fontStyle=0;horizontal=1;collapsible=0;startSize=6;swimlaneLine=0;swimlaneFillColor=#E6E6E5;fillColor=#E6E6E5;rounded=0;whiteSpace=wrap;html=1;absoluteArcSize=1;arcSize=12;strokeColor=#417CB9;fontColor=#417CB9;verticalAlign=top;align=center;spacingLeft=5;dashed=0;strokeWidth=2;fontSize=3;spacingTop=-4;shadow=0;" vertex="1" parent="1">
          <mxGeometry x="1000" y="601.5" width="220" height="118.5" as="geometry" />
        </mxCell>
        <mxCell id="95eRo9iGLmmY8nyHqxOv-12" style="edgeStyle=orthogonalEdgeStyle;rounded=0;orthogonalLoop=1;jettySize=auto;html=1;exitX=1;exitY=0.5;exitDx=0;exitDy=0;entryX=0;entryY=0.5;entryDx=0;entryDy=0;endArrow=blockThin;endFill=1;endSize=4;strokeColor=#9a9996;" edge="1" parent="95eRo9iGLmmY8nyHqxOv-2" source="95eRo9iGLmmY8nyHqxOv-6" target="95eRo9iGLmmY8nyHqxOv-8">
          <mxGeometry relative="1" as="geometry" />
        </mxCell>
        <mxCell id="95eRo9iGLmmY8nyHqxOv-6" value="" style="ellipse;whiteSpace=wrap;html=1;aspect=fixed;fillColor=#57e389;" vertex="1" parent="95eRo9iGLmmY8nyHqxOv-2">
          <mxGeometry x="13.61999999999989" y="20.5" width="10" height="10" as="geometry" />
        </mxCell>
        <mxCell id="95eRo9iGLmmY8nyHqxOv-7" value="" style="ellipse;whiteSpace=wrap;html=1;aspect=fixed;fillColor=#ed333b;" vertex="1" parent="95eRo9iGLmmY8nyHqxOv-2">
          <mxGeometry x="186.90999999999985" y="20.5" width="10" height="10" as="geometry" />
        </mxCell>
        <mxCell id="95eRo9iGLmmY8nyHqxOv-8" value="Input" style="rounded=1;whiteSpace=wrap;html=1;fillColor=#dae8fc;strokeColor=#6c8ebf;fontSize=6;" vertex="1" parent="95eRo9iGLmmY8nyHqxOv-2">
          <mxGeometry x="36.91" y="17.75" width="30" height="15.5" as="geometry" />
        </mxCell>
        <mxCell id="95eRo9iGLmmY8nyHqxOv-17" style="edgeStyle=orthogonalEdgeStyle;rounded=0;orthogonalLoop=1;jettySize=auto;html=1;exitX=1;exitY=0.5;exitDx=0;exitDy=0;entryX=0;entryY=0.5;entryDx=0;entryDy=0;strokeColor=#9a9996;align=center;verticalAlign=middle;fontFamily=Helvetica;fontSize=11;fontColor=default;labelBackgroundColor=default;endArrow=blockThin;endFill=1;endSize=4;" edge="1" parent="95eRo9iGLmmY8nyHqxOv-2" source="95eRo9iGLmmY8nyHqxOv-9" target="95eRo9iGLmmY8nyHqxOv-15">
          <mxGeometry relative="1" as="geometry" />
        </mxCell>
        <mxCell id="95eRo9iGLmmY8nyHqxOv-9" value="" style="ellipse;whiteSpace=wrap;html=1;aspect=fixed;fillColor=#f6f5f4;fontColor=#f6f5f4;" vertex="1" parent="95eRo9iGLmmY8nyHqxOv-2">
          <mxGeometry x="79.99999999999986" y="20.5" width="10" height="10" as="geometry" />
        </mxCell>
        <mxCell id="95eRo9iGLmmY8nyHqxOv-13" style="edgeStyle=orthogonalEdgeStyle;rounded=0;orthogonalLoop=1;jettySize=auto;html=1;exitX=1;exitY=0.5;exitDx=0;exitDy=0;entryX=0;entryY=0.5;entryDx=0;entryDy=0;endArrow=blockThin;endFill=1;endSize=4;strokeColor=#9a9996;" edge="1" parent="95eRo9iGLmmY8nyHqxOv-2" source="95eRo9iGLmmY8nyHqxOv-8" target="95eRo9iGLmmY8nyHqxOv-9">
          <mxGeometry relative="1" as="geometry">
            <mxPoint x="34" y="36" as="sourcePoint" />
            <mxPoint x="47" y="36" as="targetPoint" />
          </mxGeometry>
        </mxCell>
        <mxCell id="95eRo9iGLmmY8nyHqxOv-23" style="edgeStyle=orthogonalEdgeStyle;rounded=0;orthogonalLoop=1;jettySize=auto;html=1;exitX=1;exitY=0.5;exitDx=0;exitDy=0;entryX=0;entryY=0.5;entryDx=0;entryDy=0;strokeColor=#9a9996;align=center;verticalAlign=middle;fontFamily=Helvetica;fontSize=11;fontColor=default;labelBackgroundColor=default;endArrow=blockThin;endFill=1;endSize=4;" edge="1" parent="95eRo9iGLmmY8nyHqxOv-2" source="95eRo9iGLmmY8nyHqxOv-14" target="95eRo9iGLmmY8nyHqxOv-7">
          <mxGeometry relative="1" as="geometry" />
        </mxCell>
        <mxCell id="95eRo9iGLmmY8nyHqxOv-14" value="Case 1" style="rounded=1;whiteSpace=wrap;html=1;fillColor=#dae8fc;strokeColor=#6c8ebf;fontSize=6;" vertex="1" parent="95eRo9iGLmmY8nyHqxOv-2">
          <mxGeometry x="126.91" y="17.75" width="30" height="15.5" as="geometry" />
        </mxCell>
        <mxCell id="95eRo9iGLmmY8nyHqxOv-19" style="edgeStyle=orthogonalEdgeStyle;rounded=0;orthogonalLoop=1;jettySize=auto;html=1;exitX=0.5;exitY=1;exitDx=0;exitDy=0;entryX=0;entryY=0.5;entryDx=0;entryDy=0;strokeColor=#9a9996;align=center;verticalAlign=middle;fontFamily=Helvetica;fontSize=11;fontColor=default;labelBackgroundColor=default;endArrow=blockThin;endFill=1;endSize=4;" edge="1" parent="95eRo9iGLmmY8nyHqxOv-2" source="95eRo9iGLmmY8nyHqxOv-15" target="95eRo9iGLmmY8nyHqxOv-18">
          <mxGeometry relative="1" as="geometry">
            <Array as="points">
              <mxPoint x="110" y="93" />
            </Array>
          </mxGeometry>
        </mxCell>
        <mxCell id="95eRo9iGLmmY8nyHqxOv-20" style="edgeStyle=orthogonalEdgeStyle;rounded=0;orthogonalLoop=1;jettySize=auto;html=1;exitX=1;exitY=0.5;exitDx=0;exitDy=0;entryX=0;entryY=0.5;entryDx=0;entryDy=0;strokeColor=#9a9996;align=center;verticalAlign=middle;fontFamily=Helvetica;fontSize=11;fontColor=default;labelBackgroundColor=default;endArrow=blockThin;endFill=1;endSize=4;" edge="1" parent="95eRo9iGLmmY8nyHqxOv-2" source="95eRo9iGLmmY8nyHqxOv-15" target="95eRo9iGLmmY8nyHqxOv-14">
          <mxGeometry relative="1" as="geometry" />
        </mxCell>
        <mxCell id="95eRo9iGLmmY8nyHqxOv-15" value="" style="rhombus;whiteSpace=wrap;html=1;fillColor=#f6d32d;" vertex="1" parent="95eRo9iGLmmY8nyHqxOv-2">
          <mxGeometry x="103.46" y="20.5" width="13.09" height="11" as="geometry" />
        </mxCell>
        <mxCell id="95eRo9iGLmmY8nyHqxOv-22" style="edgeStyle=orthogonalEdgeStyle;rounded=0;orthogonalLoop=1;jettySize=auto;html=1;exitX=1;exitY=0.5;exitDx=0;exitDy=0;entryX=0;entryY=0.5;entryDx=0;entryDy=0;strokeColor=#9a9996;align=center;verticalAlign=middle;fontFamily=Helvetica;fontSize=11;fontColor=default;labelBackgroundColor=default;endArrow=blockThin;endFill=1;endSize=4;" edge="1" parent="95eRo9iGLmmY8nyHqxOv-2" source="95eRo9iGLmmY8nyHqxOv-18" target="95eRo9iGLmmY8nyHqxOv-21">
          <mxGeometry relative="1" as="geometry" />
        </mxCell>
        <mxCell id="95eRo9iGLmmY8nyHqxOv-18" value="Case 2" style="rounded=1;whiteSpace=wrap;html=1;fillColor=#dae8fc;strokeColor=#6c8ebf;fontSize=6;" vertex="1" parent="95eRo9iGLmmY8nyHqxOv-2">
          <mxGeometry x="126.91000000000008" y="85.5" width="30" height="15.5" as="geometry" />
        </mxCell>
        <mxCell id="95eRo9iGLmmY8nyHqxOv-24" style="edgeStyle=orthogonalEdgeStyle;rounded=0;orthogonalLoop=1;jettySize=auto;html=1;exitX=0.5;exitY=0;exitDx=0;exitDy=0;strokeColor=#9a9996;align=center;verticalAlign=middle;fontFamily=Helvetica;fontSize=11;fontColor=default;labelBackgroundColor=default;endArrow=blockThin;endFill=1;endSize=4;" edge="1" parent="95eRo9iGLmmY8nyHqxOv-2" source="95eRo9iGLmmY8nyHqxOv-21">
          <mxGeometry relative="1" as="geometry">
            <mxPoint x="191.99999999999977" y="28.5" as="targetPoint" />
          </mxGeometry>
        </mxCell>
        <mxCell id="95eRo9iGLmmY8nyHqxOv-21" value="Output" style="rounded=1;whiteSpace=wrap;html=1;fillColor=#dae8fc;strokeColor=#6c8ebf;fontSize=6;" vertex="1" parent="95eRo9iGLmmY8nyHqxOv-2">
          <mxGeometry x="176.91000000000008" y="85.5" width="30" height="15.5" as="geometry" />
        </mxCell>
        <mxCell id="95eRo9iGLmmY8nyHqxOv-5" value="" style="endArrow=none;html=1;rounded=0;exitX=1;exitY=0.5;exitDx=0;exitDy=0;entryX=0;entryY=0.5;entryDx=0;entryDy=0;strokeColor=#417cb9;endSize=8;startSize=8;strokeWidth=2;" edge="1" parent="1" source="95eRo9iGLmmY8nyHqxOv-2" target="95eRo9iGLmmY8nyHqxOv-2">
          <mxGeometry width="50" height="50" relative="1" as="geometry">
            <mxPoint x="1323.09" y="589" as="sourcePoint" />
            <mxPoint x="1373.09" y="539" as="targetPoint" />
          </mxGeometry>
        </mxCell>
        <mxCell id="T21aQVliIUyU_0U-5JRh-2" value="USER" style="aspect=fixed;perimeter=ellipsePerimeter;html=1;align=center;shadow=0;dashed=0;fontColor=#4277BB;labelBackgroundColor=#ffffff;fontSize=12;spacingTop=0;image;image=img/lib/ibm/blockchain/blockchain_developer.svg;" parent="1" vertex="1">
          <mxGeometry x="1380" y="316.5" width="60" height="60" as="geometry" />
        </mxCell>
        <mxCell id="95eRo9iGLmmY8nyHqxOv-35" value="Imixs-AI Adapter Service" style="swimlane;fontStyle=1;horizontal=1;collapsible=0;startSize=30;swimlaneLine=0;swimlaneFillColor=none;fillColor=none;rounded=0;whiteSpace=wrap;html=1;absoluteArcSize=1;arcSize=12;strokeColor=#417CB9;fontColor=#417CB9;verticalAlign=top;align=center;spacingLeft=5;dashed=0;strokeWidth=4;fontSize=16;" vertex="1" parent="1">
          <mxGeometry x="620" y="160" width="220" height="450" as="geometry" />
        </mxCell>
        <mxCell id="T21aQVliIUyU_0U-5JRh-24" value="XML API" style="aspect=fixed;perimeter=ellipsePerimeter;html=1;align=center;shadow=0;dashed=0;fontColor=#4277BB;labelBackgroundColor=#ffffff;fontSize=14;spacingTop=0;image;image=img/lib/ibm/management/cluster_management.svg;" parent="95eRo9iGLmmY8nyHqxOv-35" vertex="1">
          <mxGeometry x="76.5" y="191.2" width="60" height="60" as="geometry" />
        </mxCell>
        <mxCell id="T21aQVliIUyU_0U-5JRh-25" value="Configuration" style="aspect=fixed;perimeter=ellipsePerimeter;html=1;align=center;shadow=0;dashed=0;fontColor=#4277BB;labelBackgroundColor=#ffffff;fontSize=14;spacingTop=0;image;image=img/lib/ibm/devops/devops.svg;" parent="95eRo9iGLmmY8nyHqxOv-35" vertex="1">
          <mxGeometry x="76.5" y="330" width="60" height="60" as="geometry" />
        </mxCell>
        <mxCell id="T21aQVliIUyU_0U-5JRh-30" value="Web Interface" style="aspect=fixed;perimeter=ellipsePerimeter;html=1;align=center;shadow=0;dashed=0;fontColor=#4277BB;labelBackgroundColor=#ffffff;fontSize=14;spacingTop=0;image;image=img/lib/ibm/blockchain/event.svg;" parent="95eRo9iGLmmY8nyHqxOv-35" vertex="1">
          <mxGeometry x="75" y="50" width="63" height="63" as="geometry" />
        </mxCell>
        <mxCell id="95eRo9iGLmmY8nyHqxOv-36" value="REST API" style="aspect=fixed;perimeter=ellipsePerimeter;html=1;align=center;shadow=0;dashed=0;fontColor=#4277BB;labelBackgroundColor=#ffffff;fontSize=14;spacingTop=0;image;image=img/lib/ibm/applications/iot_application.svg;" vertex="1" parent="95eRo9iGLmmY8nyHqxOv-35">
          <mxGeometry x="190" y="191.2" width="60" height="60" as="geometry" />
        </mxCell>
        <mxCell id="95eRo9iGLmmY8nyHqxOv-42" value="" style="edgeStyle=orthogonalEdgeStyle;fontSize=12;html=1;endArrow=classicThin;endFill=1;rounded=0;strokeColor=#0076BE;strokeWidth=2;startArrow=classicThin;startFill=1;entryX=0;entryY=0.5;entryDx=0;entryDy=0;exitX=1;exitY=0.5;exitDx=0;exitDy=0;" edge="1" parent="95eRo9iGLmmY8nyHqxOv-35" source="T21aQVliIUyU_0U-5JRh-24" target="95eRo9iGLmmY8nyHqxOv-36">
          <mxGeometry width="60" height="60" relative="1" as="geometry">
            <mxPoint x="114.5" y="120" as="sourcePoint" />
            <mxPoint x="90" y="80" as="targetPoint" />
          </mxGeometry>
        </mxCell>
        <mxCell id="95eRo9iGLmmY8nyHqxOv-48" value="" style="group;fontSize=7;fillColor=#deddda;" vertex="1" connectable="0" parent="1">
          <mxGeometry x="210" y="620" width="280" height="100" as="geometry" />
        </mxCell>
        <mxCell id="95eRo9iGLmmY8nyHqxOv-55" value="" style="swimlane;fontStyle=0;horizontal=1;collapsible=0;startSize=28;swimlaneLine=0;swimlaneFillColor=none;fillColor=none;rounded=0;whiteSpace=wrap;html=1;absoluteArcSize=1;arcSize=12;strokeColor=#417CB9;fontColor=#417CB9;verticalAlign=top;align=left;spacingLeft=5;dashed=0;strokeWidth=2;fontSize=7;spacingTop=0;" vertex="1" parent="95eRo9iGLmmY8nyHqxOv-48">
          <mxGeometry width="280" height="100" as="geometry" />
        </mxCell>
        <mxCell id="95eRo9iGLmmY8nyHqxOv-57" value="CUDA" style="image;aspect=fixed;perimeter=ellipsePerimeter;html=1;align=center;shadow=0;dashed=0;fontColor=#4277BB;labelBackgroundColor=default;fontSize=12;spacingTop=3;image=img/lib/ibm/infrastructure/microservices_mesh.svg;fontFamily=Helvetica;" vertex="1" parent="95eRo9iGLmmY8nyHqxOv-55">
          <mxGeometry x="115.86206896551725" y="20" width="38.833103448275864" height="38.833103448275864" as="geometry" />
        </mxCell>
        <mxCell id="95eRo9iGLmmY8nyHqxOv-58" value="GPU" style="image;aspect=fixed;perimeter=ellipsePerimeter;html=1;align=center;shadow=0;dashed=0;fontColor=#4277BB;labelBackgroundColor=default;fontSize=12;spacingTop=3;image=img/lib/ibm/infrastructure/mobile_backend.svg;fontFamily=Helvetica;" vertex="1" parent="95eRo9iGLmmY8nyHqxOv-55">
          <mxGeometry x="204.40000000000003" y="20" width="38.833103448275864" height="38.833103448275864" as="geometry" />
        </mxCell>
        <mxCell id="95eRo9iGLmmY8nyHqxOv-50" value="&lt;div&gt;NVIDA&lt;br&gt;Toolkit&lt;br&gt;&lt;/div&gt;" style="aspect=fixed;perimeter=ellipsePerimeter;html=1;align=center;shadow=0;dashed=0;fontColor=#4277BB;labelBackgroundColor=#ffffff;fontSize=12;spacingTop=0;image;image=img/lib/ibm/blockchain/consensus.svg;" vertex="1" parent="95eRo9iGLmmY8nyHqxOv-55">
          <mxGeometry x="37.3296" y="20" width="38.833103448275864" height="38.833103448275864" as="geometry" />
        </mxCell>
        <mxCell id="95eRo9iGLmmY8nyHqxOv-62" value="Imixs Workflow Engine" style="swimlane;fontStyle=1;horizontal=1;collapsible=0;startSize=30;swimlaneLine=0;swimlaneFillColor=none;fillColor=none;rounded=0;whiteSpace=wrap;html=1;absoluteArcSize=1;arcSize=12;strokeColor=#417cb9;fontColor=#417CB9;verticalAlign=top;align=center;spacingLeft=5;strokeWidth=4;fontSize=16;" vertex="1" parent="1">
          <mxGeometry x="979.1" y="160" width="341.8" height="390" as="geometry" />
        </mxCell>
        <mxCell id="T21aQVliIUyU_0U-5JRh-43" value="" style="ellipse;whiteSpace=wrap;html=1;aspect=fixed;rounded=0;fontSize=7;align=center;fillColor=none;strokeWidth=7;strokeColor=#6E6F72;spacingTop=0;" parent="95eRo9iGLmmY8nyHqxOv-62" vertex="1">
          <mxGeometry x="86.75" y="86.5" width="190" height="190" as="geometry" />
        </mxCell>
        <mxCell id="T21aQVliIUyU_0U-5JRh-95" value="" style="ellipse;whiteSpace=wrap;html=1;aspect=fixed;rounded=0;strokeColor=none;strokeWidth=7;fillColor=#A71E6C;fontSize=14;fontColor=#FFFFFF;align=center;" parent="95eRo9iGLmmY8nyHqxOv-62" vertex="1">
          <mxGeometry x="214.75" y="281.5" width="8" height="8" as="geometry" />
        </mxCell>
        <mxCell id="T21aQVliIUyU_0U-5JRh-96" value="" style="ellipse;whiteSpace=wrap;html=1;aspect=fixed;rounded=0;strokeColor=none;strokeWidth=7;fillColor=#A71E6C;fontSize=14;fontColor=#FFFFFF;align=center;" parent="95eRo9iGLmmY8nyHqxOv-62" vertex="1">
          <mxGeometry x="235.75" y="272" width="8" height="8" as="geometry" />
        </mxCell>
        <mxCell id="T21aQVliIUyU_0U-5JRh-97" value="" style="ellipse;whiteSpace=wrap;html=1;aspect=fixed;rounded=0;strokeColor=none;strokeWidth=7;fillColor=#A71E6C;fontSize=14;fontColor=#FFFFFF;align=center;" parent="95eRo9iGLmmY8nyHqxOv-62" vertex="1">
          <mxGeometry x="266.75" y="241" width="8" height="8" as="geometry" />
        </mxCell>
        <mxCell id="T21aQVliIUyU_0U-5JRh-98" value="" style="ellipse;whiteSpace=wrap;html=1;aspect=fixed;rounded=0;strokeColor=none;strokeWidth=7;fillColor=#A71E6C;fontSize=14;fontColor=#FFFFFF;align=center;" parent="95eRo9iGLmmY8nyHqxOv-62" vertex="1">
          <mxGeometry x="253.75" y="257.5" width="8" height="8" as="geometry" />
        </mxCell>
        <mxCell id="T21aQVliIUyU_0U-5JRh-99" value="" style="ellipse;whiteSpace=wrap;html=1;aspect=fixed;rounded=0;strokeColor=none;strokeWidth=7;fillColor=#A71E6C;fontSize=14;fontColor=#FFFFFF;align=center;" parent="95eRo9iGLmmY8nyHqxOv-62" vertex="1">
          <mxGeometry x="134.75" y="282.5" width="8" height="8" as="geometry" />
        </mxCell>
        <mxCell id="T21aQVliIUyU_0U-5JRh-100" value="" style="ellipse;whiteSpace=wrap;html=1;aspect=fixed;rounded=0;strokeColor=none;strokeWidth=7;fillColor=#A71E6C;fontSize=14;fontColor=#FFFFFF;align=center;" parent="95eRo9iGLmmY8nyHqxOv-62" vertex="1">
          <mxGeometry x="112.75" y="273.5" width="8" height="8" as="geometry" />
        </mxCell>
        <mxCell id="T21aQVliIUyU_0U-5JRh-101" value="" style="ellipse;whiteSpace=wrap;html=1;aspect=fixed;rounded=0;strokeColor=none;strokeWidth=7;fillColor=#A71E6C;fontSize=14;fontColor=#FFFFFF;align=center;" parent="95eRo9iGLmmY8nyHqxOv-62" vertex="1">
          <mxGeometry x="93.75" y="256.5" width="8" height="8" as="geometry" />
        </mxCell>
        <mxCell id="T21aQVliIUyU_0U-5JRh-102" value="" style="ellipse;whiteSpace=wrap;html=1;aspect=fixed;rounded=0;strokeColor=none;strokeWidth=7;fillColor=#A71E6C;fontSize=14;fontColor=#FFFFFF;align=center;" parent="95eRo9iGLmmY8nyHqxOv-62" vertex="1">
          <mxGeometry x="78.75" y="239.5" width="8" height="8" as="geometry" />
        </mxCell>
        <mxCell id="T21aQVliIUyU_0U-5JRh-103" value="" style="ellipse;whiteSpace=wrap;html=1;aspect=fixed;rounded=0;strokeColor=none;strokeWidth=7;fillColor=#A71E6C;fontSize=14;fontColor=#FFFFFF;align=center;" parent="95eRo9iGLmmY8nyHqxOv-62" vertex="1">
          <mxGeometry x="214.75" y="78.5" width="8" height="8" as="geometry" />
        </mxCell>
        <mxCell id="T21aQVliIUyU_0U-5JRh-104" value="" style="ellipse;whiteSpace=wrap;html=1;aspect=fixed;rounded=0;strokeColor=none;strokeWidth=7;fillColor=#A71E6C;fontSize=14;fontColor=#FFFFFF;align=center;" parent="95eRo9iGLmmY8nyHqxOv-62" vertex="1">
          <mxGeometry x="238.75" y="92.5" width="8" height="8" as="geometry" />
        </mxCell>
        <mxCell id="T21aQVliIUyU_0U-5JRh-105" value="" style="ellipse;whiteSpace=wrap;html=1;aspect=fixed;rounded=0;strokeColor=none;strokeWidth=7;fillColor=#A71E6C;fontSize=14;fontColor=#FFFFFF;align=center;" parent="95eRo9iGLmmY8nyHqxOv-62" vertex="1">
          <mxGeometry x="258.75" y="111.5" width="8" height="8" as="geometry" />
        </mxCell>
        <mxCell id="T21aQVliIUyU_0U-5JRh-106" value="" style="ellipse;whiteSpace=wrap;html=1;aspect=fixed;rounded=0;strokeColor=none;strokeWidth=7;fillColor=#A71E6C;fontSize=14;fontColor=#FFFFFF;align=center;" parent="95eRo9iGLmmY8nyHqxOv-62" vertex="1">
          <mxGeometry x="273.75" y="133.5" width="8" height="8" as="geometry" />
        </mxCell>
        <mxCell id="T21aQVliIUyU_0U-5JRh-107" value="" style="ellipse;whiteSpace=wrap;html=1;aspect=fixed;rounded=0;strokeColor=none;strokeWidth=7;fillColor=#A71E6C;fontSize=14;fontColor=#FFFFFF;align=center;" parent="95eRo9iGLmmY8nyHqxOv-62" vertex="1">
          <mxGeometry x="131.75" y="82.5" width="8" height="8" as="geometry" />
        </mxCell>
        <mxCell id="T21aQVliIUyU_0U-5JRh-108" value="" style="ellipse;whiteSpace=wrap;html=1;aspect=fixed;rounded=0;strokeColor=none;strokeWidth=7;fillColor=#A71E6C;fontSize=14;fontColor=#FFFFFF;align=center;" parent="95eRo9iGLmmY8nyHqxOv-62" vertex="1">
          <mxGeometry x="107.75" y="95.5" width="8" height="8" as="geometry" />
        </mxCell>
        <mxCell id="T21aQVliIUyU_0U-5JRh-109" value="" style="ellipse;whiteSpace=wrap;html=1;aspect=fixed;rounded=0;strokeColor=none;strokeWidth=7;fillColor=#A71E6C;fontSize=14;fontColor=#FFFFFF;align=center;" parent="95eRo9iGLmmY8nyHqxOv-62" vertex="1">
          <mxGeometry x="86.75" y="116.5" width="8" height="8" as="geometry" />
        </mxCell>
        <mxCell id="95eRo9iGLmmY8nyHqxOv-75" value="Workflow" style="image;aspect=fixed;perimeter=ellipsePerimeter;html=1;align=center;shadow=0;dashed=0;fontColor=#4277BB;labelBackgroundColor=default;fontSize=12;spacingTop=3;image=img/lib/ibm/devops/devops.svg;fontFamily=Helvetica;" vertex="1" parent="95eRo9iGLmmY8nyHqxOv-62">
          <mxGeometry x="147.2499999999999" y="59.5" width="60" height="60" as="geometry" />
        </mxCell>
        <mxCell id="95eRo9iGLmmY8nyHqxOv-76" value="" style="image;aspect=fixed;perimeter=ellipsePerimeter;html=1;align=center;shadow=0;dashed=0;fontColor=#4277BB;labelBackgroundColor=default;fontSize=12;spacingTop=3;image=img/lib/ibm/vpc/VPNConnection.svg;fontFamily=Helvetica;" vertex="1" parent="95eRo9iGLmmY8nyHqxOv-62">
          <mxGeometry x="195.05" y="50" width="20" height="20" as="geometry" />
        </mxCell>
        <mxCell id="95eRo9iGLmmY8nyHqxOv-77" value="Workflow" style="image;aspect=fixed;perimeter=ellipsePerimeter;html=1;align=center;shadow=0;dashed=0;fontColor=#4277BB;labelBackgroundColor=default;fontSize=12;spacingTop=3;image=img/lib/ibm/devops/devops.svg;fontFamily=Helvetica;" vertex="1" parent="95eRo9iGLmmY8nyHqxOv-62">
          <mxGeometry x="52.749999999999886" y="156.5" width="60" height="60" as="geometry" />
        </mxCell>
        <mxCell id="95eRo9iGLmmY8nyHqxOv-78" value="Workflow" style="image;aspect=fixed;perimeter=ellipsePerimeter;html=1;align=center;shadow=0;dashed=0;fontColor=#4277BB;labelBackgroundColor=default;fontSize=12;spacingTop=3;image=img/lib/ibm/devops/devops.svg;fontFamily=Helvetica;" vertex="1" parent="95eRo9iGLmmY8nyHqxOv-62">
          <mxGeometry x="151.7499999999999" y="241" width="60" height="60" as="geometry" />
        </mxCell>
        <mxCell id="95eRo9iGLmmY8nyHqxOv-79" value="Workflow" style="image;aspect=fixed;perimeter=ellipsePerimeter;html=1;align=center;shadow=0;dashed=0;fontColor=#4277BB;labelBackgroundColor=default;fontSize=12;spacingTop=3;image=img/lib/ibm/devops/devops.svg;fontFamily=Helvetica;" vertex="1" parent="95eRo9iGLmmY8nyHqxOv-62">
          <mxGeometry x="240.7499999999999" y="156.5" width="60" height="60" as="geometry" />
        </mxCell>
        <mxCell id="95eRo9iGLmmY8nyHqxOv-80" value="" style="image;aspect=fixed;perimeter=ellipsePerimeter;html=1;align=center;shadow=0;dashed=0;fontColor=#4277BB;labelBackgroundColor=default;fontSize=12;spacingTop=3;image=img/lib/ibm/vpc/VPNConnection.svg;fontFamily=Helvetica;" vertex="1" parent="95eRo9iGLmmY8nyHqxOv-62">
          <mxGeometry x="280.9" y="141.5" width="20" height="20" as="geometry" />
        </mxCell>
        <mxCell id="95eRo9iGLmmY8nyHqxOv-81" value="" style="image;aspect=fixed;perimeter=ellipsePerimeter;html=1;align=center;shadow=0;dashed=0;fontColor=#4277BB;labelBackgroundColor=default;fontSize=12;spacingTop=3;image=img/lib/ibm/vpc/VPNConnection.svg;fontFamily=Helvetica;" vertex="1" parent="95eRo9iGLmmY8nyHqxOv-62">
          <mxGeometry x="100.75" y="141.5" width="20" height="20" as="geometry" />
        </mxCell>
        <mxCell id="95eRo9iGLmmY8nyHqxOv-82" value="" style="image;aspect=fixed;perimeter=ellipsePerimeter;html=1;align=center;shadow=0;dashed=0;fontColor=#4277BB;labelBackgroundColor=default;fontSize=12;spacingTop=3;image=img/lib/ibm/vpc/VPNConnection.svg;fontFamily=Helvetica;" vertex="1" parent="95eRo9iGLmmY8nyHqxOv-62">
          <mxGeometry x="195.04999999999984" y="237.5" width="20" height="20" as="geometry" />
        </mxCell>
        <mxCell id="T21aQVliIUyU_0U-5JRh-35" value="" style="verticalLabelPosition=bottom;verticalAlign=top;html=1;shape=mxgraph.basic.obtuse_triangle;dx=0.23;rounded=0;flipH=1;strokeColor=none;fillColor=#f5c211;spacingTop=0;" parent="1" vertex="1">
          <mxGeometry x="1100" y="490" width="40" height="110" as="geometry" />
        </mxCell>
        <mxCell id="95eRo9iGLmmY8nyHqxOv-59" value="" style="edgeStyle=orthogonalEdgeStyle;rounded=0;orthogonalLoop=1;jettySize=auto;html=1;strokeColor=#9a9996;align=center;verticalAlign=middle;fontFamily=Helvetica;fontSize=11;fontColor=default;labelBackgroundColor=default;endArrow=blockThin;endFill=1;endSize=4;entryX=0.5;entryY=0;entryDx=0;entryDy=0;" edge="1" parent="1" target="T21aQVliIUyU_0U-5JRh-25">
          <mxGeometry relative="1" as="geometry">
            <mxPoint x="727" y="420" as="sourcePoint" />
          </mxGeometry>
        </mxCell>
        <mxCell id="95eRo9iGLmmY8nyHqxOv-70" value="" style="edgeStyle=orthogonalEdgeStyle;fontSize=12;html=1;endArrow=classicThin;endFill=1;rounded=0;strokeColor=#0076BE;strokeWidth=2;startArrow=classicThin;startFill=1;entryX=0;entryY=0.5;entryDx=0;entryDy=0;exitX=1;exitY=0.5;exitDx=0;exitDy=0;" edge="1" parent="1" target="T21aQVliIUyU_0U-5JRh-2">
          <mxGeometry width="60" height="60" relative="1" as="geometry">
            <mxPoint x="1281.85" y="346.5" as="sourcePoint" />
            <mxPoint x="820" y="391" as="targetPoint" />
          </mxGeometry>
        </mxCell>
        <mxCell id="T21aQVliIUyU_0U-5JRh-85" value="1" style="ellipse;whiteSpace=wrap;html=1;aspect=fixed;rounded=0;strokeColor=none;strokeWidth=7;fillColor=#939598;fontSize=14;align=center;fontColor=#FFFFFF;" parent="1" vertex="1">
          <mxGeometry x="1340" y="334.50000000000006" width="21" height="21" as="geometry" />
        </mxCell>
        <mxCell id="T21aQVliIUyU_0U-5JRh-77" value="2" style="ellipse;whiteSpace=wrap;html=1;aspect=fixed;rounded=0;strokeColor=none;strokeWidth=7;fillColor=#939598;fontSize=14;align=center;fontColor=#FFFFFF;" parent="1" vertex="1">
          <mxGeometry x="930" y="334" width="21" height="21" as="geometry" />
        </mxCell>
        <mxCell id="T21aQVliIUyU_0U-5JRh-64" value="4" style="ellipse;whiteSpace=wrap;html=1;aspect=fixed;rounded=0;strokeColor=none;strokeWidth=7;fillColor=#939598;fontSize=14;align=center;fontColor=#FFFFFF;" parent="1" vertex="1">
          <mxGeometry x="170" y="239.7" width="21" height="21" as="geometry" />
        </mxCell>
        <mxCell id="95eRo9iGLmmY8nyHqxOv-32" value="Falcon" style="shape=cylinder3;whiteSpace=wrap;html=1;boundedLbl=1;backgroundOutline=1;size=15;fontFamily=Helvetica;fontSize=11;fontColor=default;labelBackgroundColor=default;fillColor=#99c1f1;" vertex="1" parent="1">
          <mxGeometry x="50" y="486.15" width="100" height="60.7" as="geometry" />
        </mxCell>
        <mxCell id="95eRo9iGLmmY8nyHqxOv-34" value="" style="edgeStyle=orthogonalEdgeStyle;fontSize=12;html=1;endArrow=classicThin;endFill=1;rounded=0;strokeColor=#0076BE;strokeWidth=2;startArrow=none;startFill=0;entryX=1;entryY=0.5;entryDx=0;entryDy=0;entryPerimeter=0;exitX=0;exitY=0.5;exitDx=0;exitDy=0;" edge="1" parent="1" source="T21aQVliIUyU_0U-5JRh-28" target="95eRo9iGLmmY8nyHqxOv-32">
          <mxGeometry width="60" height="60" relative="1" as="geometry">
            <mxPoint x="272" y="391.7" as="sourcePoint" />
            <mxPoint x="160" y="393.7" as="targetPoint" />
            <Array as="points">
              <mxPoint x="150" y="517" />
            </Array>
          </mxGeometry>
        </mxCell>
        <mxCell id="95eRo9iGLmmY8nyHqxOv-83" value="Modeller" style="aspect=fixed;perimeter=ellipsePerimeter;html=1;align=center;shadow=0;dashed=0;fontColor=#4277BB;labelBackgroundColor=#ffffff;fontSize=12;spacingTop=0;image;image=img/lib/ibm/blockchain/blockchain_developer.svg;" vertex="1" parent="1">
          <mxGeometry x="1270" y="630.75" width="60" height="60" as="geometry" />
        </mxCell>
      </root>
    </mxGraphModel>
  </diagram>
</mxfile>
